<?xml version="1.0" encoding="utf-8"?>
<!-- Generator: Adobe Illustrator 18.1.1, SVG Export Plug-In . SVG Version: 6.00 Build 0)  -->
<!DOCTYPE svg PUBLIC "-//W3C//DTD SVG 1.1//EN" "http://www.w3.org/Graphics/SVG/1.1/DTD/svg11.dtd">
<svg version="1.1" id="Layer_1" xmlns="http://www.w3.org/2000/svg" xmlns:xlink="http://www.w3.org/1999/xlink" x="0px" y="0px"
	 viewBox="0 0 60 30.1" enable-background="new 0 0 60 30.1" xml:space="preserve">
<g>
	<defs>
		<rect id="SVGID_1_" x="0" y="0" width="60" height="30.1"/>
	</defs>
	<clipPath id="SVGID_2_">
		<use xlink:href="#SVGID_1_"  overflow="visible"/>
	</clipPath>
	<path clip-path="url(#SVGID_2_)" d="M51.1,18.7h1.2c0.7,0,1.1,0.2,1.4,0.6c0.3,0.4,0.4,0.9,0.3,1.4l-0.3,2.2
		c-0.1,0.6-0.3,1.1-0.7,1.4c-0.4,0.4-0.9,0.5-1.6,0.5h-1.2L51.1,18.7z M51.3,25.8c0.9,0,1.7-0.3,2.3-0.8c0.6-0.5,1-1.2,1.1-2.1
		l0.3-2.2c0.1-0.9,0-1.6-0.5-2.1c-0.5-0.5-1.2-0.8-2.1-0.8h-2.2l-1.1,8H51.3z"/>
</g>
<polygon fill="#6FC49B" points="39.2,25.8 39.3,24.9 37.3,24.9 38.2,18.7 40.2,18.7 40.3,17.8 35.3,17.8 35.2,18.7 37.2,18.7 
	36.3,24.9 34.3,24.9 34.2,25.8 "/>
<g>
	<defs>
		<rect id="SVGID_3_" x="0" y="0" width="60" height="30.1"/>
	</defs>
	<clipPath id="SVGID_4_">
		<use xlink:href="#SVGID_3_"  overflow="visible"/>
	</clipPath>
	<path clip-path="url(#SVGID_4_)" d="M20.7,22.7h1.4l1.6,3.1h1.1l-1.6-3.1c0.7-0.1,1.2-0.3,1.6-0.6c0.4-0.4,0.6-0.9,0.7-1.5l0.1-0.6
		c0.1-0.7,0-1.2-0.4-1.6c-0.4-0.4-1-0.5-1.8-0.5h-3l-1.1,8h1L20.7,22.7z M21.2,18.7h2c0.5,0,0.9,0.1,1.1,0.3
		c0.2,0.2,0.3,0.5,0.2,0.9l-0.1,0.6c-0.1,0.5-0.2,0.8-0.5,1c-0.3,0.2-0.7,0.3-1.2,0.3h-2L21.2,18.7z M9.1,25.1
		c0.5-0.5,0.9-1.2,1-2.2l0.2-1.1H7.4l-0.1,0.9h1.9c-0.1,0.8-0.3,1.4-0.6,1.7C8.2,24.8,7.8,25,7.1,25c-0.7,0-1.1-0.1-1.4-0.4
		c-0.2-0.3-0.3-0.8-0.2-1.5l0.3-2.4C6,19.9,6.2,19.3,6.5,19c0.3-0.3,0.8-0.5,1.5-0.5c0.5,0,0.9,0.1,1.1,0.4c0.2,0.3,0.3,0.7,0.3,1.3
		l1-0.1c0.1-0.8-0.1-1.5-0.5-1.9c-0.4-0.4-1-0.6-1.8-0.6c-0.9,0-1.6,0.3-2.2,0.8c-0.6,0.5-0.9,1.2-1,2.2L4.5,23
		c-0.1,0.9,0,1.6,0.5,2.1s1.1,0.7,2,0.7C7.9,25.9,8.6,25.6,9.1,25.1"/>
	<path clip-path="url(#SVGID_4_)" d="M54.3,12.2l0.1-0.9h-4.2l0.4-3h3.7l0.1-0.9h-3.7l0.3-2.3h4.2l0.1-0.9h-5.2l-1.1,8H54.3z
		 M39.2,12.2l1.1-8h-0.9l-1,6.9l-1.8-6.9h-1.4l-1.1,8h0.9L36,5.5l1.7,6.7H39.2z M20.6,11c-0.2-0.3-0.3-0.8-0.2-1.5L20.8,7
		c0.1-0.7,0.3-1.2,0.6-1.6C21.7,5.2,22.1,5,22.8,5c0.6,0,1,0.2,1.2,0.5c0.2,0.3,0.3,0.8,0.2,1.6l-0.3,2.4c-0.1,0.7-0.3,1.2-0.6,1.5
		c-0.3,0.3-0.8,0.5-1.4,0.5C21.2,11.4,20.8,11.3,20.6,11 M23.8,11.6c0.5-0.5,0.9-1.2,1-2.1L25.2,7c0.1-0.9,0-1.7-0.4-2.2
		c-0.4-0.5-1-0.7-1.9-0.7c-0.9,0-1.6,0.2-2.1,0.7c-0.5,0.5-0.9,1.2-1,2.2l-0.3,2.4c-0.1,0.9,0,1.6,0.4,2.1c0.4,0.5,1,0.7,1.9,0.7
		C22.6,12.3,23.3,12.1,23.8,11.6 M6.3,5.1h1.2c0.7,0,1.1,0.2,1.4,0.6c0.3,0.4,0.4,0.9,0.3,1.4L8.9,9.4c-0.1,0.6-0.3,1.1-0.7,1.4
		c-0.4,0.4-0.9,0.5-1.6,0.5H5.5L6.3,5.1z M6.5,12.2c0.9,0,1.7-0.3,2.3-0.8c0.6-0.5,1-1.2,1.1-2.1l0.3-2.2c0.1-0.9,0-1.6-0.5-2.1
		C9.3,4.5,8.6,4.2,7.7,4.2H5.4l-1.1,8H6.5z"/>
	<rect x="0.3" y="0.2" clip-path="url(#SVGID_4_)" fill="none" stroke="#E6E7E8" stroke-width="0.5" width="14.9" height="14.9"/>
</g>
<rect x="15.1" y="0.2" fill="none" stroke="#E6E7E8" stroke-width="0.5" width="14.9" height="14.9"/>
<rect x="30" y="0.2" fill="none" stroke="#E6E7E8" stroke-width="0.5" width="14.9" height="14.9"/>
<rect x="44.9" y="0.2" fill="none" stroke="#E6E7E8" stroke-width="0.5" width="14.9" height="14.9"/>
<g>
	<defs>
		<rect id="SVGID_5_" x="0" y="0" width="60" height="30.1"/>
	</defs>
	<clipPath id="SVGID_6_">
		<use xlink:href="#SVGID_5_"  overflow="visible"/>
	</clipPath>
	<rect x="0.3" y="15" clip-path="url(#SVGID_6_)" fill="none" stroke="#E6E7E8" stroke-width="0.5" width="14.9" height="14.9"/>
	<rect x="15.1" y="15" clip-path="url(#SVGID_6_)" fill="none" stroke="#E6E7E8" stroke-width="0.5" width="14.9" height="14.9"/>
	<rect x="30" y="15" clip-path="url(#SVGID_6_)" fill="none" stroke="#E6E7E8" stroke-width="0.5" width="14.9" height="14.9"/>
	<rect x="44.9" y="15" clip-path="url(#SVGID_6_)" fill="none" stroke="#E6E7E8" stroke-width="0.5" width="14.9" height="14.9"/>
</g>
</svg>
